grf
version=1
nRows=11
nColumns=37
inDegrees=no
endheader
time	ground_force_1_vx	ground_force_1_vy	ground_force_1_vz	ground_force_1_px	ground_force_1_py	ground_force_1_pz	ground_moment_1_mx	ground_moment_1_my	ground_moment_1_mz	ground_force_2_vx	ground_force_2_vy	ground_force_2_vz	ground_force_2_px	ground_force_2_py	ground_force_2_pz	ground_moment_2_mx	ground_moment_2_my	ground_moment_2_mz	ground_force_3_vx	ground_force_3_vy	ground_force_3_vz	ground_force_3_px	ground_force_3_py	ground_force_3_pz	ground_moment_3_mx	ground_moment_3_my	ground_moment_3_mz	ground_force_4_vx	ground_force_4_vy	ground_force_4_vz	ground_force_4_px	ground_force_4_py	ground_force_4_pz	ground_moment_4_mx	ground_moment_4_my	ground_moment_4_mz
      0.00000000	      0.00000000	     -0.00000000	      0.00000000	      0.00000000	      0.00000000	      0.00000000	      0.00000000	      0.00000000	      0.00000000	      7.36370945	     25.58927155	   -412.48376465	   -365.63263055	  -1027.54291318	      0.00000000	      0.00000000	     -0.00000000	   2275.22705781	     -4.65363772	    -25.34099347	   -471.48577881	   -345.86560090	   -735.44010717	      0.00000000	      0.00000000	     -0.00000000	  -3654.28952684	      0.00000000	     -0.00000000	      0.00000000	      0.00000000	      0.00000000	      0.00000000	      0.00000000	      0.00000000	      0.00000000
      0.01000000	      0.00000000	     -0.00000000	      0.00000000	      0.00000000	      0.00000000	      0.00000000	      0.00000000	      0.00000000	      0.00000000	      7.60723400	     25.71819305	   -410.62011719	   -366.32881384	  -1025.92258042	      0.00000000	      0.00000000	      0.00000000	   2416.70556390	     -4.12114028	    -24.94697916	   -472.14797974	   -346.73411100	   -735.74535445	      0.00000000	      0.00000000	     -0.00000000	  -3681.33948337	      0.00000000	     -0.00000000	      0.00000000	      0.00000000	      0.00000000	      0.00000000	      0.00000000	      0.00000000	      0.00000000
      0.02000000	      0.00000000	     -0.00000000	      0.00000000	      0.00000000	      0.00000000	      0.00000000	      0.00000000	      0.00000000	      0.00000000	      7.55845308	     25.50838089	   -411.80303955	   -366.11678201	  -1026.40880521	      0.00000000	      0.00000000	      0.00000000	   2334.96232490	     -4.12094243	    -25.36426317	   -472.11602783	   -346.27779418	   -736.00371017	      0.00000000	      0.00000000	     -0.00000000	  -3755.69683934	      0.00000000	     -0.00000000	      0.00000000	      0.00000000	      0.00000000	      0.00000000	      0.00000000	      0.00000000	      0.00000000
      0.03000000	      0.00000000	     -0.00000000	      0.00000000	      0.00000000	      0.00000000	      0.00000000	      0.00000000	      0.00000000	      0.00000000	      7.45358658	     26.36457825	   -410.39508057	   -366.42563995	  -1026.22123026	      0.00000000	      0.00000000	     -0.00000000	   2173.91882526	     -4.95911822	    -25.58904604	   -470.65637207	   -347.11658047	   -736.67285161	      0.00000000	      0.00000000	     -0.00000000	  -3650.37559231	      0.00000000	     -0.00000000	      0.00000000	      0.00000000	      0.00000000	      0.00000000	      0.00000000	      0.00000000	      0.00000000
      0.04000000	      0.00000000	     -0.00000000	      0.00000000	      0.00000000	      0.00000000	      0.00000000	      0.00000000	      0.00000000	      0.00000000	      7.48412848	     26.56085968	   -408.11834717	   -366.60251658	  -1025.92651569	      0.00000000	      0.00000000	     -0.00000000	   2103.15205210	     -5.45110497	    -25.60410833	   -470.40359497	   -346.91878620	   -736.77521444	      0.00000000	      0.00000000	     -0.00000000	  -3714.44542261	      0.00000000	     -0.00000000	      0.00000000	      0.00000000	      0.00000000	      0.00000000	      0.00000000	      0.00000000	      0.00000000
      0.05000000	      0.00000000	     -0.00000000	      0.00000000	      0.00000000	      0.00000000	      0.00000000	      0.00000000	      0.00000000	      0.00000000	      7.23607540	     26.45695877	   -407.02005005	   -366.63583069	  -1026.16914251	      0.00000000	      0.00000000	      0.00000000	   2094.37055241	     -5.53958211	    -25.66227292	   -469.95806885	   -347.44216481	   -735.99126860	      0.00000000	      0.00000000	     -0.00000000	  -3775.18701728	      0.00000000	     -0.00000000	      0.00000000	      0.00000000	      0.00000000	      0.00000000	      0.00000000	      0.00000000	      0.00000000
      0.06000000	      0.00000000	     -0.00000000	      0.00000000	      0.00000000	      0.00000000	      0.00000000	      0.00000000	      0.00000000	      0.00000000	      7.37550688	     26.98162460	   -404.62951660	   -367.04470265	  -1025.89685570	      0.00000000	      0.00000000	      0.00000000	   2281.88948912	     -5.68758139	    -25.52496670	   -469.39669800	   -347.11714621	   -736.48798397	      0.00000000	      0.00000000	     -0.00000000	  -3690.55089793	      0.00000000	     -0.00000000	      0.00000000	      0.00000000	      0.00000000	      0.00000000	      0.00000000	      0.00000000	      0.00000000
      0.07000000	      0.00000000	     -0.00000000	      0.00000000	      0.00000000	      0.00000000	      0.00000000	      0.00000000	      0.00000000	      0.00000000	      7.23701429	     26.90642738	   -405.60546875	   -367.26634564	  -1026.58946405	      0.00000000	      0.00000000	      0.00000000	   2084.10164806	     -6.03233564	    -25.87825341	   -471.10327148	   -346.90265081	   -735.73564697	      0.00000000	      0.00000000	     -0.00000000	  -3598.15809174	      0.00000000	     -0.00000000	      0.00000000	      0.00000000	      0.00000000	      0.00000000	      0.00000000	      0.00000000	      0.00000000
      0.08000000	      0.00000000	     -0.00000000	      0.00000000	      0.00000000	      0.00000000	      0.00000000	      0.00000000	      0.00000000	      0.00000000	      7.49368286	     26.95623779	   -405.80377197	   -367.60909406	  -1026.71980822	      0.00000000	      0.00000000	     -0.00000000	   2191.89471242	     -5.96857389	    -25.42284150	   -471.00555420	   -347.37918531	   -736.03931784	      0.00000000	      0.00000000	     -0.00000000	  -3520.95690157	      0.00000000	     -0.00000000	      0.00000000	      0.00000000	      0.00000000	      0.00000000	      0.00000000	      0.00000000	      0.00000000
      0.09000000	      0.00000000	     -0.00000000	      0.00000000	      0.00000000	      0.00000000	      0.00000000	      0.00000000	      0.00000000	      0.00000000	      7.44164467	     26.41973877	   -407.11642456	   -368.30766385	  -1025.85368247	      0.00000000	      0.00000000	      0.00000000	   2130.20024509	     -6.00727064	    -25.34832330	   -469.80624390	   -346.83237587	   -735.85873128	      0.00000000	      0.00000000	     -0.00000000	  -3552.95735730	      0.00000000	     -0.00000000	      0.00000000	      0.00000000	      0.00000000	      0.00000000	      0.00000000	      0.00000000	      0.00000000
      0.10000000	      0.00000000	     -0.00000000	      0.00000000	      0.00000000	      0.00000000	      0.00000000	      0.00000000	      0.00000000	      0.00000000	      7.90206289	     26.54857445	   -407.42053223	   -368.31288574	  -1025.88748075	      0.00000000	      0.00000000	     -0.00000000	   2146.35314502	     -5.48685392	    -25.43664503	   -467.91021729	   -346.96373725	   -736.50027158	      0.00000000	      0.00000000	     -0.00000000	  -3667.71218866	      0.00000000	     -0.00000000	      0.00000000	      0.00000000	      0.00000000	      0.00000000	      0.00000000	      0.00000000	      0.00000000
